<?xml version="1.0" encoding="UTF-8"?>
<svg width="50px" height="50px" viewBox="0 0 50 50" version="1.1" xmlns="http://www.w3.org/2000/svg" xmlns:xlink="http://www.w3.org/1999/xlink">
    <!-- Generator: Sketch 52.3 (67297) - http://www.bohemiancoding.com/sketch -->
    <title>Advisor_green</title>
    <desc>Created with Sketch.</desc>
    <g id="Assets" stroke="none" stroke-width="1" fill="none" fill-rule="evenodd" opacity="0.5">
        <g id="Artboard" transform="translate(-74.000000, -12.000000)" fill="#00D592" fill-rule="nonzero">
            <g id="Advisor_green" transform="translate(74.000000, 12.000000)">
                <path d="M21.6666667,17.5 C22.1266667,17.5 22.5,17.8741667 22.5,18.3333333 L24.1666667,18.3333333 C24.1666667,16.955 23.045,15.8333333 21.6666667,15.8333333 C20.2883333,15.8333333 19.1666667,16.955 19.1666667,18.3333333 L20.8333333,18.3333333 C20.8333333,17.8741667 21.2066667,17.5 21.6666667,17.5 Z" id="Path"></path>
                <path d="M28.3333333,17.5 C28.7933333,17.5 29.1666667,17.8741667 29.1666667,18.3333333 L30.8333333,18.3333333 C30.8333333,16.955 29.7116667,15.8333333 28.3333333,15.8333333 C26.955,15.8333333 25.8333333,16.955 25.8333333,18.3333333 L27.5,18.3333333 C27.5,17.8741667 27.8733333,17.5 28.3333333,17.5 Z" id="Path"></path>
                <path d="M25,38.3333333 C23.1616667,38.3333333 21.6666667,39.8283333 21.6666667,41.6666667 C21.6666667,43.505 23.1616667,45 25,45 C26.8383333,45 28.3333333,43.505 28.3333333,41.6666667 C28.3333333,39.8283333 26.8383333,38.3333333 25,38.3333333 Z M25,43.3333333 C24.0808333,43.3333333 23.3333333,42.5858333 23.3333333,41.6666667 C23.3333333,40.7475 24.0808333,40 25,40 C25.9191667,40 26.6666667,40.7475 26.6666667,41.6666667 C26.6666667,42.5858333 25.9191667,43.3333333 25,43.3333333 Z" id="Shape"></path>
                <path d="M45,37.5 C45,30.6075 39.3925,25 32.5,25 L31.5925,25 C31.8886497,24.7389887 32.1691373,24.4607272 32.4325,24.1666667 L33.3333333,24.1666667 C35.6308333,24.1666667 37.5,22.2975 37.5,20 L37.5,18.5316667 C38.5408365,17.8367654 39.1660951,16.668157 39.1666667,15.4166667 C39.1659683,14.1611735 38.5364774,12.989482 37.49,12.2958333 C37.3791667,5.49833333 31.8241667,0 25,0 C18.1758333,0 12.6208333,5.49833333 12.51,12.2958333 C11.4635226,12.989482 10.8340317,14.1611735 10.8333333,15.4166667 C10.8333333,17.4841667 12.5158333,19.1666667 14.5833333,19.1666667 L15.1508333,19.1666667 C15.5344795,21.4275274 16.6847655,23.4873898 18.4083333,25 L17.5,25 C10.6075,25 5,30.6075 5,37.5 L5,48.3333333 L0,48.3333333 L0,50 L50,50 L50,48.3333333 L45,48.3333333 L45,37.5 Z M25,27.5 C25.8916667,27.5 26.7525,27.3716667 27.5758333,27.1516667 L25,32.3033333 L22.4241667,27.1516667 C23.2475,27.3716667 24.1083333,27.5 25,27.5 Z M31.1516667,26.6666667 L27.8183333,33.3333333 L26.3483333,33.3333333 L29.6816667,26.6666667 L31.1516667,26.6666667 Z M35.8333333,20 C35.8296525,21.2479235 34.9045215,22.3011988 33.6675,22.4658333 C34.2542325,21.4450327 34.6543754,20.3278494 34.8491667,19.1666667 L35.4166667,19.1666667 C35.5591667,19.1666667 35.695,19.14 35.8333333,19.1241667 L35.8333333,20 Z M35.4166667,17.5 L35,17.5 L35,13.3333333 L35.4166667,13.3333333 C36.5658333,13.3333333 37.5,14.2683333 37.5,15.4166667 C37.5,16.565 36.5658333,17.5 35.4166667,17.5 Z M25,1.66666667 C30.705,1.66666667 35.3833333,6.1025 35.7933333,11.705 C35.6675,11.6916667 35.5458333,11.6666667 35.4166667,11.6666667 L34.8491667,11.6666667 C34.0525,6.945 29.945,3.33333333 25,3.33333333 C20.055,3.33333333 15.9475,6.945 15.1508333,11.6666667 L14.5833333,11.6666667 C14.4541667,11.6666667 14.3325,11.6916667 14.2066667,11.705 C14.6166667,6.1025 19.295,1.66666667 25,1.66666667 Z M33.3325,13.3125 C27.3183333,13.1008333 23.3333333,10.6416667 23.3333333,8.33333333 C23.3333333,7.87309604 22.9602373,7.5 22.5,7.5 C22.0397627,7.5 21.6666667,7.87309604 21.6666667,8.33333333 C21.6666667,10.4158333 19.5133333,12.1416667 16.715,12.4475 C17.1591667,8.2675 20.705,5 25,5 C29.5875,5 33.3208333,8.7275 33.3325,13.3125 Z M14.5833333,17.5 C13.4341667,17.5 12.5,16.565 12.5,15.4166667 C12.5,14.2683333 13.4341667,13.3333333 14.5833333,13.3333333 L15,13.3333333 L15,17.5 L14.5833333,17.5 Z M16.6666667,17.5 L16.6666667,14.12 C19.2691667,13.8941667 21.4775,12.6391667 22.58,10.8816667 C24.3233333,13.1916667 28.3975,14.8175 33.3333333,14.9833333 L33.3333333,17.5 C33.3325267,19.3055111 32.7417051,21.0612959 31.6508333,22.5 L25,22.5 L25,24.1666667 L29.9783333,24.1666667 C27.5525063,25.9885069 24.325385,26.34008 21.5641667,25.0833333 C18.6808333,23.7716667 16.6666667,20.87 16.6666667,17.5 Z M23.6516667,33.3333333 L22.1816667,33.3333333 L18.8483333,26.6666667 L20.3183333,26.6666667 L23.6516667,33.3333333 Z M6.66666667,37.5 C6.66666667,31.6958333 11.2583333,26.9575 16.9975,26.6925 L20.3183333,33.3333333 L13.3333333,33.3333333 C11.0358333,33.3333333 9.16666667,35.2025 9.16666667,37.5 L9.16666667,48.3333333 L6.66666667,48.3333333 L6.66666667,37.5 Z M10.8333333,48.3333333 L10.8333333,37.5 C10.8333333,36.1216667 11.955,35 13.3333333,35 L36.6666667,35 C38.045,35 39.1666667,36.1216667 39.1666667,37.5 L39.1666667,48.3333333 L10.8333333,48.3333333 Z M40.8333333,48.3333333 L40.8333333,37.5 C40.8333333,35.2025 38.9641667,33.3333333 36.6666667,33.3333333 L29.6816667,33.3333333 L33.0025,26.6925 C38.7416667,26.9575 43.3333333,31.6958333 43.3333333,37.5 L43.3333333,48.3333333 L40.8333333,48.3333333 Z" id="Shape"></path>
                <polygon id="Path" points="35.8333333 40.8333333 37.5 40.8333333 37.5 46.6666667 35.8333333 46.6666667"></polygon>
                <polygon id="Path" points="35.8333333 37.5 37.5 37.5 37.5 39.1666667 35.8333333 39.1666667"></polygon>
                <polygon id="Path" points="43.3333333 7.5 45 7.5 45 9.16666667 43.3333333 9.16666667"></polygon>
                <polygon id="Path" points="43.3333333 10.8333333 45 10.8333333 45 12.5 43.3333333 12.5"></polygon>
                <polygon id="Path" points="43.3333333 14.1666667 45 14.1666667 45 15.8333333 43.3333333 15.8333333"></polygon>
                <polygon id="Path" points="5 17.5 6.66666667 17.5 6.66666667 19.1666667 5 19.1666667"></polygon>
                <polygon id="Path" points="5 20.8333333 6.66666667 20.8333333 6.66666667 22.5 5 22.5"></polygon>
                <polygon id="Path" points="5 24.1666667 6.66666667 24.1666667 6.66666667 25.8333333 5 25.8333333"></polygon>
            </g>
        </g>
    </g>
</svg>