<?xml version="1.0" encoding="UTF-8"?>
<svg width="120px" height="118px" viewBox="0 0 120 118" version="1.1" xmlns="http://www.w3.org/2000/svg" xmlns:xlink="http://www.w3.org/1999/xlink">
    <!-- Generator: Sketch 52.3 (67297) - http://www.bohemiancoding.com/sketch -->
    <title>success!</title>
    <desc>Created with Sketch.</desc>
    <g id="Assets" stroke="none" stroke-width="1" fill="none" fill-rule="evenodd">
        <g id="Artboard" transform="translate(-284.000000, -16.000000)" fill="#0099CC">
            <g id="cash-back-reward-like-thumb" transform="translate(284.000000, 16.000000)">
                <path d="M2,118 L88,118 C91.308,118 94,115.308 94,112 L94,88 C94,84.692 91.308,82 88,82 L80,82 L80,72 C80,67.588 76.412,64 72,64 C67.588,64 64,67.588 64,72 L64,82 L2,82 C0.8954305,82 0,82.8954305 0,84 L0,116 C0,117.104569 0.8954305,118 2,118 Z M66,86 C67.1045695,86 68,85.1045695 68,84 L68,72 C68,69.794 69.794,68 72,68 C74.206,68 76,69.794 76,72 L76,84 C76,85.1045695 76.8954305,86 78,86 L88,86 C89.104,86 90,86.898 90,88 L90,112 C90,113.102 89.104,114 88,114 L58,114 L58,86 L66,86 Z M54,114 L48,114 L48,86 L54,86 L54,114 Z M4,86 L44,86 L44,114 L4,114 L4,86 Z" id="Shape" fill-rule="nonzero"></path>
                <polygon id="Path" points="36 106 40 106 40 110 36 110"></polygon>
                <path d="M118,72 C112.486,72 108,67.514 108,62 C108,60.8954305 107.104569,60 106,60 C104.895431,60 104,60.8954305 104,62 C104,67.514 99.514,72 94,72 C92.8954305,72 92,72.8954305 92,74 C92,75.1045695 92.8954305,76 94,76 C99.514,76 104,80.486 104,86 C104,87.1045695 104.895431,88 106,88 C107.104569,88 108,87.1045695 108,86 C108,80.486 112.486,76 118,76 C119.104569,76 120,75.1045695 120,74 C120,72.8954305 119.104569,72 118,72 Z M106,78.794 C104.81524,76.8302302 103.16977,75.1847602 101.206,74 C103.16977,72.8152398 104.81524,71.1697698 106,69.206 C107.18476,71.1697698 108.83023,72.8152398 110.794,74 C108.830679,75.1853335 107.185334,76.830679 106,78.794 Z" id="Shape" fill-rule="nonzero"></path>
                <path d="M70,20 C70,8.972 61.028,0 50,0 C38.972,0 30,8.972 30,20 C30,31.028 38.972,40 50,40 C61.028,40 70,31.028 70,20 Z M50,36 C41.178,36 34,28.822 34,20 C34,11.178 41.178,4 50,4 C58.822,4 66,11.178 66,20 C66,28.822 58.822,36 50,36 Z" id="Shape" fill-rule="nonzero"></path>
                <path d="M50,8 C43.382,8 38,13.382 38,20 C38,26.618 43.382,32 50,32 C56.618,32 62,26.618 62,20 C62,13.382 56.618,8 50,8 Z M50,28 C45.588,28 42,24.412 42,20 C42,15.588 45.588,12 50,12 C54.412,12 58,15.588 58,20 C58,24.412 54.412,28 50,28 Z" id="Shape" fill-rule="nonzero"></path>
                <path d="M16,72 C23.718,72 30,65.72 30,58 C30,50.28 23.718,44 16,44 C8.282,44 2,50.28 2,58 C2,65.72 8.282,72 16,72 Z M16,48 C21.514,48 26,52.486 26,58 C26,63.514 21.514,68 16,68 C10.486,68 6,63.514 6,58 C6,52.486 10.486,48 16,48 Z" id="Shape" fill-rule="nonzero"></path>
                <path d="M100,12 C88.972,12 80,20.972 80,32 C80,43.028 88.972,52 100,52 C111.028,52 120,43.028 120,32 C120,20.972 111.028,12 100,12 Z M100,48 C91.178,48 84,40.822 84,32 C84,23.178 91.178,16 100,16 C108.822,16 116,23.178 116,32 C116,40.822 108.822,48 100,48 Z" id="Shape" fill-rule="nonzero"></path>
                <path d="M100,20 C93.382,20 88,25.382 88,32 C88,38.618 93.382,44 100,44 C106.618,44 112,38.618 112,32 C112,25.382 106.618,20 100,20 Z M100,40 C95.588,40 92,36.412 92,32 C92,27.588 95.588,24 100,24 C104.412,24 108,27.588 108,32 C108,36.412 104.412,40 100,40 Z" id="Shape" fill-rule="nonzero"></path>
                <path d="M48,78 L52,78 C52,68.076 43.926,60 34,60 L34,64 C41.718,64 48,70.28 48,78 Z" id="Path"></path>
                <path d="M74,52 L74,48 C64.074,48 56,56.076 56,66 L60,66 C60,58.28 66.282,52 74,52 Z" id="Path"></path>
                <path d="M46,60 L50,60 C50,47.87 40.13,38 28,38 L28,42 C37.926,42 46,50.076 46,60 Z" id="Path"></path>
                <polygon id="Path" points="6 14 10 14 10 18 6 18"></polygon>
                <polygon id="Path" points="76 4 80 4 80 8 76 8"></polygon>
                <polygon id="Path" points="16 32 20 32 20 36 16 36"></polygon>
                <polygon id="Path" points="106 98 110 98 110 102 106 102"></polygon>
                <polygon id="Path" points="84 56 88 56 88 60 84 60"></polygon>
                <polygon id="Path" points="58 42 62 42 62 46 58 46"></polygon>
                <polygon id="Path" points="72 34 76 34 76 38 72 38"></polygon>
                <polygon id="Path" points="32 70 36 70 36 74 32 74"></polygon>
            </g>
        </g>
    </g>
</svg>